Roboto Serif Micro-Light.ufo
<glyph name="exclam" format="2">
  <advance width="336"/>
  <unicode hex="0021"/>
  <outline>
    <contour>
      <point x="217" y="755" type="curve"/>
      <point x="119" y="755" type="line"/>
      <point x="119" y="572"/>
      <point x="138" y="476"/>
      <point x="138" y="258" type="curve"/>
      <point x="198" y="258" type="line"/>
      <point x="198" y="476"/>
      <point x="217" y="573"/>
    </contour>
    <component base="period" xOffset="7.866666666666667"/>
  </outline>
</glyph>
<glyph name="comma" format="2">
  <advance width="342"/>
  <unicode hex="002C"/>
  <outline>
    <contour>
      <point x="121" y="-182" type="line"/>
      <point x="224" y="-138"/>
      <point x="260" y="-79"/>
      <point x="260" y="30" type="curve" smooth="yes"/>
      <point x="260" y="105"/>
      <point x="228" y="134"/>
      <point x="173" y="134" type="curve" smooth="yes"/>
      <point x="120" y="134"/>
      <point x="92" y="107"/>
      <point x="92" y="65" type="curve" smooth="yes"/>
      <point x="92" y="25"/>
      <point x="120" y="2"/>
      <point x="162" y="2" type="curve" smooth="yes"/>
      <point x="180" y="2"/>
      <point x="197" y="7"/>
      <point x="208" y="18" type="curve"/>
      <point x="208" y="-69"/>
      <point x="177" y="-104"/>
      <point x="70" y="-132" type="curve"/>
    </contour>
  </outline>
</glyph>
<glyph name="period" format="2">
  <advance width="320"/>
  <unicode hex="002E"/>
  <outline>
    <contour>
      <point x="239" y="63" type="curve" smooth="yes"/>
      <point x="239" y="107"/>
      <point x="205" y="136"/>
      <point x="159" y="136" type="curve" smooth="yes"/>
      <point x="114" y="136"/>
      <point x="82" y="107"/>
      <point x="82" y="63" type="curve" smooth="yes"/>
      <point x="82" y="20"/>
      <point x="114" y="-10"/>
      <point x="159" y="-10" type="curve" smooth="yes"/>
      <point x="205" y="-10"/>
      <point x="239" y="20"/>
    </contour>
  </outline>
</glyph>
<glyph name="zero" format="2">
  <advance width="560"/>
  <unicode hex="0030"/>
  <outline>
    <contour>
      <point x="280" y="-11" type="curve" smooth="yes"/>
      <point x="422" y="-11"/>
      <point x="510" y="97"/>
      <point x="510" y="319" type="curve" smooth="yes"/>
      <point x="510" y="541"/>
      <point x="422" y="649"/>
      <point x="280" y="649" type="curve" smooth="yes"/>
      <point x="138" y="649"/>
      <point x="50" y="541"/>
      <point x="50" y="319" type="curve" smooth="yes"/>
      <point x="50" y="97"/>
      <point x="138" y="-11"/>
    </contour>
    <contour>
      <point x="280" y="39" type="curve" smooth="yes"/>
      <point x="164" y="39"/>
      <point x="125" y="128"/>
      <point x="125" y="319" type="curve" smooth="yes"/>
      <point x="125" y="510"/>
      <point x="164" y="599"/>
      <point x="280" y="599" type="curve" smooth="yes"/>
      <point x="396" y="599"/>
      <point x="435" y="510"/>
      <point x="435" y="319" type="curve" smooth="yes"/>
      <point x="435" y="128"/>
      <point x="396" y="39"/>
    </contour>
  </outline>
</glyph>
<glyph name="one" format="2">
  <advance width="560"/>
  <unicode hex="0031"/>
  <outline>
    <contour>
      <point x="348" y="85" type="curve" smooth="yes"/>
      <point x="348" y="639" type="line"/>
      <point x="298" y="639" type="line"/>
      <point x="267" y="558"/>
      <point x="206" y="536"/>
      <point x="90" y="533" type="curve"/>
      <point x="90" y="473" type="line"/>
      <point x="180" y="473"/>
      <point x="249" y="499"/>
      <point x="279" y="553" type="curve"/>
      <point x="279" y="85" type="line" smooth="yes"/>
      <point x="279" y="56"/>
      <point x="239" y="49"/>
      <point x="169" y="49" type="curve" smooth="yes"/>
      <point x="109" y="49" type="line"/>
      <point x="109" y="0" type="line"/>
      <point x="505" y="0" type="line"/>
      <point x="505" y="49" type="line"/>
      <point x="468" y="49" type="line"/>
      <point x="392" y="49"/>
      <point x="348" y="56"/>
    </contour>
  </outline>
</glyph>
<glyph name="two" format="2">
  <advance width="560"/>
  <unicode hex="0032"/>
  <outline>
    <contour>
      <point x="311" y="56" type="curve" smooth="yes"/>
      <point x="112" y="56" type="line"/>
      <point x="300" y="203"/>
      <point x="471" y="324"/>
      <point x="471" y="474" type="curve"/>
      <point x="471" y="597"/>
      <point x="399" y="649"/>
      <point x="271" y="649" type="curve" smooth="yes"/>
      <point x="177" y="649"/>
      <point x="106" y="605"/>
      <point x="75" y="580" type="curve"/>
      <point x="75" y="425" type="line"/>
      <point x="151" y="425" type="line"/>
      <point x="151" y="569" type="line"/>
      <point x="181" y="585"/>
      <point x="219" y="596"/>
      <point x="265" y="596" type="curve" smooth="yes"/>
      <point x="346" y="596"/>
      <point x="397" y="573"/>
      <point x="397" y="474" type="curve"/>
      <point x="397" y="329"/>
      <point x="286" y="259"/>
      <point x="66" y="76" type="curve"/>
      <point x="66" y="0" type="line"/>
      <point x="492" y="0" type="line"/>
      <point x="492" y="200" type="line"/>
      <point x="438" y="200" type="line"/>
      <point x="429" y="97" type="line" smooth="yes"/>
      <point x="426" y="63"/>
      <point x="393" y="56"/>
    </contour>
  </outline>
</glyph>
<glyph name="five" format="2">
  <advance width="560"/>
  <unicode hex="0035"/>
  <outline>
    <contour>
      <point x="271" y="-90" type="curve" smooth="yes"/>
      <point x="409" y="-90"/>
      <point x="503" y="-7"/>
      <point x="503" y="167" type="curve" smooth="yes"/>
      <point x="503" y="312"/>
      <point x="438" y="396"/>
      <point x="312" y="396" type="curve" smooth="yes"/>
      <point x="239" y="396"/>
      <point x="196" y="362"/>
      <point x="157" y="292" type="curve"/>
      <point x="157" y="575" type="line"/>
      <point x="442" y="575" type="line"/>
      <point x="461" y="639" type="line"/>
      <point x="106" y="639" type="line"/>
      <point x="106" y="241" type="line"/>
      <point x="155" y="241" type="line"/>
      <point x="197" y="314"/>
      <point x="234" y="344"/>
      <point x="303" y="344" type="curve" smooth="yes"/>
      <point x="382" y="344"/>
      <point x="431" y="298"/>
      <point x="431" y="167" type="curve" smooth="yes"/>
      <point x="431" y="18"/>
      <point x="374" y="-38"/>
      <point x="272" y="-38" type="curve" smooth="yes"/>
      <point x="159" y="-38"/>
      <point x="121" y="23"/>
      <point x="92" y="86" type="curve"/>
      <point x="47" y="52" type="line"/>
      <point x="82" y="-32"/>
      <point x="145" y="-90"/>
    </contour>
  </outline>
</glyph>
<glyph name="six" format="2">
  <advance width="560"/>
  <unicode hex="0036"/>
  <outline>
    <contour>
      <point x="463" y="685" type="curve"/>
      <point x="453" y="740" type="line"/>
      <point x="197" y="711"/>
      <point x="63" y="594"/>
      <point x="63" y="295" type="curve" smooth="yes"/>
      <point x="63" y="76"/>
      <point x="150" y="-10"/>
      <point x="294" y="-10" type="curve" smooth="yes"/>
      <point x="431" y="-10"/>
      <point x="510" y="97"/>
      <point x="510" y="241" type="curve" smooth="yes"/>
      <point x="510" y="382"/>
      <point x="443" y="468"/>
      <point x="321" y="468" type="curve" smooth="yes"/>
      <point x="238" y="468"/>
      <point x="185" y="420"/>
      <point x="134" y="323" type="curve"/>
      <point x="141" y="585"/>
      <point x="254" y="667"/>
    </contour>
    <contour>
      <point x="310" y="416" type="curve" smooth="yes"/>
      <point x="414" y="416"/>
      <point x="435" y="339"/>
      <point x="435" y="241" type="curve" smooth="yes"/>
      <point x="435" y="128"/>
      <point x="396" y="42"/>
      <point x="294" y="42" type="curve" smooth="yes"/>
      <point x="191" y="42"/>
      <point x="137" y="100"/>
      <point x="133" y="275" type="curve"/>
      <point x="194" y="381"/>
      <point x="233" y="416"/>
    </contour>
  </outline>
</glyph>
<glyph name="seven" format="2">
  <advance width="560"/>
  <unicode hex="0037"/>
  <outline>
    <contour>
      <point x="254" y="579" type="curve" smooth="yes"/>
      <point x="472" y="579" type="line"/>
      <point x="379" y="472"/>
      <point x="230" y="238"/>
      <point x="209" y="-77" type="curve"/>
      <point x="286" y="-77" type="line"/>
      <point x="303" y="247"/>
      <point x="397" y="412"/>
      <point x="524" y="575" type="curve"/>
      <point x="524" y="639" type="line"/>
      <point x="66" y="639" type="line"/>
      <point x="66" y="427" type="line"/>
      <point x="121" y="427" type="line"/>
      <point x="129" y="536" type="line" smooth="yes"/>
      <point x="131" y="572"/>
      <point x="168" y="579"/>
    </contour>
  </outline>
</glyph>
<glyph name="nine" format="2">
  <advance width="560"/>
  <unicode hex="0039"/>
  <outline>
    <contour>
      <point x="102" y="-46" type="curve"/>
      <point x="112" y="-101" type="line"/>
      <point x="375" y="-72"/>
      <point x="510" y="45"/>
      <point x="510" y="344" type="curve" smooth="yes"/>
      <point x="510" y="563"/>
      <point x="422" y="649"/>
      <point x="279" y="649" type="curve" smooth="yes"/>
      <point x="141" y="649"/>
      <point x="63" y="546"/>
      <point x="63" y="404" type="curve" smooth="yes"/>
      <point x="63" y="267"/>
      <point x="129" y="180"/>
      <point x="251" y="180" type="curve" smooth="yes"/>
      <point x="334" y="180"/>
      <point x="387" y="228"/>
      <point x="439" y="325" type="curve"/>
      <point x="434" y="56"/>
      <point x="320" y="-27"/>
    </contour>
    <contour>
      <point x="137" y="404" type="curve" smooth="yes"/>
      <point x="137" y="515"/>
      <point x="176" y="597"/>
      <point x="279" y="597" type="curve" smooth="yes"/>
      <point x="379" y="597"/>
      <point x="433" y="540"/>
      <point x="438" y="373" type="curve"/>
      <point x="378" y="267"/>
      <point x="339" y="232"/>
      <point x="262" y="232" type="curve" smooth="yes"/>
      <point x="158" y="232"/>
      <point x="137" y="310"/>
    </contour>
  </outline>
</glyph>
<glyph name="question" format="2">
  <advance width="586"/>
  <unicode hex="003F"/>
  <outline>
    <contour>
      <point x="228" y="418" type="curve"/>
      <point x="228" y="248" type="line"/>
      <point x="300" y="248" type="line"/>
      <point x="300" y="374" type="line"/>
      <point x="411" y="391"/>
      <point x="518" y="438"/>
      <point x="518" y="580" type="curve" smooth="yes"/>
      <point x="518" y="706"/>
      <point x="430" y="762"/>
      <point x="288" y="762" type="curve" smooth="yes"/>
      <point x="197" y="762"/>
      <point x="114" y="725"/>
      <point x="85" y="708" type="curve"/>
      <point x="85" y="553" type="line"/>
      <point x="158" y="553" type="line"/>
      <point x="158" y="687" type="line"/>
      <point x="191" y="699"/>
      <point x="235" y="708"/>
      <point x="287" y="708" type="curve" smooth="yes"/>
      <point x="383" y="708"/>
      <point x="444" y="676"/>
      <point x="444" y="580" type="curve" smooth="yes"/>
      <point x="444" y="445"/>
      <point x="346" y="432"/>
    </contour>
    <component base="period" xOffset="107.8" yOffset="-1"/>
  </outline>
</glyph>
<glyph name="C" format="2">
  <advance width="774"/>
  <unicode hex="0043"/>
  <anchor x="398.1333333333333" y="741.0" name="top"/>
  <anchor x="398.1333333333333" y="0.0" name="bottom"/>
  <outline>
    <contour>
      <point x="393" y="681" type="curve" smooth="yes"/>
      <point x="524" y="681"/>
      <point x="604" y="599"/>
      <point x="642" y="466" type="curve"/>
      <point x="700" y="466" type="line"/>
      <point x="700" y="735" type="line"/>
      <point x="645" y="735" type="line"/>
      <point x="636" y="565" type="line"/>
      <point x="596" y="677"/>
      <point x="513" y="735"/>
      <point x="394" y="735" type="curve" smooth="yes"/>
      <point x="194" y="735"/>
      <point x="59" y="607"/>
      <point x="59" y="358" type="curve" smooth="yes"/>
      <point x="59" y="106"/>
      <point x="188" y="-25"/>
      <point x="397" y="-25" type="curve" smooth="yes"/>
      <point x="567" y="-25"/>
      <point x="666" y="62"/>
      <point x="714" y="206" type="curve"/>
      <point x="664" y="231" type="line"/>
      <point x="626" y="118"/>
      <point x="562" y="29"/>
      <point x="399" y="29" type="curve" smooth="yes"/>
      <point x="222" y="29"/>
      <point x="135" y="133"/>
      <point x="135" y="358" type="curve" smooth="yes"/>
      <point x="135" y="582"/>
      <point x="227" y="681"/>
    </contour>
  </outline>
</glyph>
<glyph name="D" format="2">
  <advance width="786"/>
  <unicode hex="0044"/>
  <anchor x="391.0" y="741.0" name="top"/>
  <anchor x="391.0" y="0.0" name="bottom"/>
  <outline>
    <contour>
      <point x="56" y="655" type="line"/>
      <point x="67" y="655" type="line" smooth="yes"/>
      <point x="116" y="655"/>
      <point x="152" y="648"/>
      <point x="152" y="619" type="curve" smooth="yes"/>
      <point x="152" y="91" type="line" smooth="yes"/>
      <point x="152" y="62"/>
      <point x="116" y="55"/>
      <point x="67" y="55" type="curve" smooth="yes"/>
      <point x="56" y="55" type="line"/>
      <point x="56" y="0" type="line"/>
      <point x="346" y="0" type="line" smooth="yes"/>
      <point x="595" y="0"/>
      <point x="727" y="119"/>
      <point x="727" y="359" type="curve" smooth="yes"/>
      <point x="727" y="600"/>
      <point x="595" y="710"/>
      <point x="346" y="710" type="curve" smooth="yes"/>
      <point x="56" y="710" type="line"/>
    </contour>
    <contour>
      <point x="346" y="658" type="line" smooth="yes"/>
      <point x="556" y="658"/>
      <point x="650" y="572"/>
      <point x="650" y="359" type="curve" smooth="yes"/>
      <point x="650" y="146"/>
      <point x="556" y="52"/>
      <point x="346" y="52" type="curve" smooth="yes"/>
      <point x="222" y="52" type="line"/>
      <point x="222" y="658" type="line"/>
    </contour>
  </outline>
</glyph>
<glyph name="E" format="2">
  <advance width="694"/>
  <unicode hex="0045"/>
  <anchor x="402.0" y="741.0" name="top"/>
  <anchor x="468.8666666666667" y="0.0" name="right"/>
  <anchor x="402.0" y="0.0" name="bottom"/>
  <outline>
    <contour>
      <point x="626" y="222" type="line"/>
      <point x="571" y="222" type="line"/>
      <point x="556" y="97" type="line" smooth="yes"/>
      <point x="551" y="61"/>
      <point x="517" y="52"/>
      <point x="431" y="52" type="curve" smooth="yes"/>
      <point x="223" y="52" type="line"/>
      <point x="223" y="340" type="line"/>
      <point x="511" y="327" type="line"/>
      <point x="511" y="403" type="line"/>
      <point x="223" y="391" type="line"/>
      <point x="223" y="658" type="line"/>
      <point x="412" y="658" type="line" smooth="yes"/>
      <point x="498" y="658"/>
      <point x="532" y="649"/>
      <point x="537" y="613" type="curve" smooth="yes"/>
      <point x="550" y="513" type="line"/>
      <point x="604" y="513" type="line"/>
      <point x="604" y="710" type="line"/>
      <point x="56" y="710" type="line"/>
      <point x="56" y="655" type="line"/>
      <point x="67" y="655" type="line" smooth="yes"/>
      <point x="116" y="655"/>
      <point x="152" y="648"/>
      <point x="152" y="619" type="curve" smooth="yes"/>
      <point x="152" y="91" type="line" smooth="yes"/>
      <point x="152" y="62"/>
      <point x="116" y="55"/>
      <point x="67" y="55" type="curve" smooth="yes"/>
      <point x="56" y="55" type="line"/>
      <point x="56" y="0" type="line"/>
      <point x="626" y="0" type="line"/>
    </contour>
  </outline>
</glyph>
<glyph name="H" format="2">
  <advance width="842"/>
  <unicode hex="0048"/>
  <anchor x="420.0" y="741.0" name="top"/>
  <anchor x="420.0" y="0.0" name="bottom"/>
  <outline>
    <contour>
      <point x="56" y="0" type="line"/>
      <point x="318" y="0" type="line"/>
      <point x="318" y="55" type="line"/>
      <point x="309" y="55" type="line" smooth="yes"/>
      <point x="271" y="55"/>
      <point x="222" y="58"/>
      <point x="222" y="65" type="curve" smooth="yes"/>
      <point x="222" y="340" type="line"/>
      <point x="619" y="340" type="line"/>
      <point x="619" y="65" type="line" smooth="yes"/>
      <point x="619" y="58"/>
      <point x="570" y="55"/>
      <point x="532" y="55" type="curve" smooth="yes"/>
      <point x="523" y="55" type="line"/>
      <point x="523" y="0" type="line"/>
      <point x="786" y="0" type="line"/>
      <point x="786" y="55" type="line"/>
      <point x="775" y="55" type="line" smooth="yes"/>
      <point x="726" y="55"/>
      <point x="690" y="62"/>
      <point x="690" y="91" type="curve" smooth="yes"/>
      <point x="690" y="619" type="line" smooth="yes"/>
      <point x="690" y="648"/>
      <point x="726" y="655"/>
      <point x="775" y="655" type="curve" smooth="yes"/>
      <point x="786" y="655" type="line"/>
      <point x="786" y="710" type="line"/>
      <point x="523" y="710" type="line"/>
      <point x="523" y="655" type="line"/>
      <point x="532" y="655" type="line" smooth="yes"/>
      <point x="570" y="655"/>
      <point x="619" y="652"/>
      <point x="619" y="645" type="curve" smooth="yes"/>
      <point x="619" y="392" type="line"/>
      <point x="222" y="392" type="line"/>
      <point x="222" y="645" type="line" smooth="yes"/>
      <point x="222" y="652"/>
      <point x="271" y="655"/>
      <point x="309" y="655" type="curve" smooth="yes"/>
      <point x="318" y="655" type="line"/>
      <point x="318" y="710" type="line"/>
      <point x="56" y="710" type="line"/>
      <point x="56" y="655" type="line"/>
      <point x="67" y="655" type="line" smooth="yes"/>
      <point x="116" y="655"/>
      <point x="152" y="648"/>
      <point x="152" y="619" type="curve" smooth="yes"/>
      <point x="152" y="91" type="line" smooth="yes"/>
      <point x="152" y="62"/>
      <point x="116" y="55"/>
      <point x="67" y="55" type="curve" smooth="yes"/>
      <point x="56" y="55" type="line"/>
    </contour>
  </outline>
</glyph>
<glyph name="I" format="2">
  <advance width="392"/>
  <unicode hex="0049"/>
  <anchor x="199.26666666666668" y="741.0" name="top"/>
  <anchor x="255.0" y="0.0" name="right"/>
  <anchor x="199.26666666666668" y="0.0" name="bottom"/>
  <outline>
    <contour>
      <point x="161" y="91" type="line" smooth="yes"/>
      <point x="161" y="62"/>
      <point x="125" y="55"/>
      <point x="76" y="55" type="curve" smooth="yes"/>
      <point x="56" y="55" type="line"/>
      <point x="56" y="0" type="line"/>
      <point x="336" y="0" type="line"/>
      <point x="336" y="55" type="line"/>
      <point x="316" y="55" type="line" smooth="yes"/>
      <point x="267" y="55"/>
      <point x="231" y="62"/>
      <point x="231" y="91" type="curve" smooth="yes"/>
      <point x="231" y="619" type="line" smooth="yes"/>
      <point x="231" y="648"/>
      <point x="267" y="655"/>
      <point x="316" y="655" type="curve" smooth="yes"/>
      <point x="336" y="655" type="line"/>
      <point x="336" y="710" type="line"/>
      <point x="56" y="710" type="line"/>
      <point x="56" y="655" type="line"/>
      <point x="76" y="655" type="line" smooth="yes"/>
      <point x="125" y="655"/>
      <point x="161" y="648"/>
      <point x="161" y="619" type="curve" smooth="yes"/>
    </contour>
  </outline>
</glyph>
<glyph name="J" format="2">
  <advance width="670"/>
  <unicode hex="004A"/>
  <anchor x="440.4" y="741.0" name="top"/>
  <outline>
    <contour>
      <point x="326" y="710" type="line"/>
      <point x="326" y="655" type="line"/>
      <point x="354" y="655" type="line" smooth="yes"/>
      <point x="403" y="655"/>
      <point x="439" y="648"/>
      <point x="439" y="619" type="curve" smooth="yes"/>
      <point x="439" y="209" type="line" smooth="yes"/>
      <point x="439" y="61"/>
      <point x="370" y="28"/>
      <point x="273" y="28" type="curve" smooth="yes"/>
      <point x="220" y="28"/>
      <point x="176" y="42"/>
      <point x="147" y="59" type="curve"/>
      <point x="147" y="221" type="line"/>
      <point x="64" y="221" type="line"/>
      <point x="64" y="40" type="line"/>
      <point x="93" y="18"/>
      <point x="165" y="-25"/>
      <point x="273" y="-25" type="curve" smooth="yes"/>
      <point x="418" y="-25"/>
      <point x="509" y="40"/>
      <point x="509" y="209" type="curve" smooth="yes"/>
      <point x="509" y="619" type="line" smooth="yes"/>
      <point x="509" y="648"/>
      <point x="545" y="655"/>
      <point x="594" y="655" type="curve" smooth="yes"/>
      <point x="617" y="655" type="line"/>
      <point x="617" y="710" type="line"/>
    </contour>
  </outline>
</glyph>
<glyph name="K" format="2">
  <advance width="775"/>
  <unicode hex="004B"/>
  <anchor x="397.06666666666666" y="741.0" name="top"/>
  <anchor x="397.06666666666666" y="0.0" name="bottom"/>
  <outline>
    <contour>
      <point x="56" y="0" type="line"/>
      <point x="316" y="0" type="line"/>
      <point x="316" y="55" type="line"/>
      <point x="307" y="55" type="line" smooth="yes"/>
      <point x="271" y="55"/>
      <point x="222" y="58"/>
      <point x="222" y="65" type="curve" smooth="yes"/>
      <point x="222" y="645" type="line" smooth="yes"/>
      <point x="222" y="652"/>
      <point x="271" y="655"/>
      <point x="307" y="655" type="curve" smooth="yes"/>
      <point x="316" y="655" type="line"/>
      <point x="316" y="710" type="line"/>
      <point x="56" y="710" type="line"/>
      <point x="56" y="655" type="line"/>
      <point x="67" y="655" type="line" smooth="yes"/>
      <point x="116" y="655"/>
      <point x="152" y="648"/>
      <point x="152" y="619" type="curve" smooth="yes"/>
      <point x="152" y="91" type="line" smooth="yes"/>
      <point x="152" y="62"/>
      <point x="116" y="55"/>
      <point x="67" y="55" type="curve" smooth="yes"/>
      <point x="56" y="55" type="line"/>
    </contour>
    <contour>
      <point x="461" y="0" type="line"/>
      <point x="744" y="0" type="line"/>
      <point x="744" y="55" type="line"/>
      <point x="726" y="55" type="line" smooth="yes"/>
      <point x="689" y="55"/>
      <point x="667" y="57"/>
      <point x="645" y="78" type="curve" smooth="yes"/>
      <point x="351" y="375" type="line"/>
      <point x="611" y="626" type="line" smooth="yes"/>
      <point x="633" y="647"/>
      <point x="654" y="655"/>
      <point x="686" y="655" type="curve" smooth="yes"/>
      <point x="714" y="655" type="line"/>
      <point x="714" y="710" type="line"/>
      <point x="468" y="710" type="line"/>
      <point x="468" y="655" type="line"/>
      <point x="477" y="655" type="line" smooth="yes"/>
      <point x="519" y="655"/>
      <point x="560" y="651"/>
      <point x="560" y="644" type="curve"/>
      <point x="279" y="369" type="line"/>
      <point x="279" y="349" type="line"/>
      <point x="561" y="65" type="line"/>
      <point x="561" y="58"/>
      <point x="517" y="55"/>
      <point x="476" y="55" type="curve" smooth="yes"/>
      <point x="461" y="55" type="line"/>
    </contour>
  </outline>
</glyph>
<glyph name="L" format="2">
  <advance width="672"/>
  <unicode hex="004C"/>
  <anchor x="400.06666666666666" y="741.0" name="top"/>
  <anchor x="495.06666666666666" y="710.0" name="right"/>
  <anchor x="495.06666666666666" y="410.0" name="mid"/>
  <anchor x="400.06666666666666" y="0.0" name="bottom"/>
  <outline>
    <contour>
      <point x="332" y="710" type="line"/>
      <point x="56" y="710" type="line"/>
      <point x="56" y="655" type="line"/>
      <point x="67" y="655" type="line" smooth="yes"/>
      <point x="116" y="655"/>
      <point x="152" y="648"/>
      <point x="152" y="619" type="curve" smooth="yes"/>
      <point x="152" y="91" type="line" smooth="yes"/>
      <point x="152" y="62"/>
      <point x="116" y="55"/>
      <point x="67" y="55" type="curve" smooth="yes"/>
      <point x="56" y="55" type="line"/>
      <point x="56" y="0" type="line"/>
      <point x="610" y="0" type="line"/>
      <point x="610" y="238" type="line"/>
      <point x="554" y="238" type="line"/>
      <point x="539" y="97" type="line" smooth="yes"/>
      <point x="535" y="61"/>
      <point x="500" y="52"/>
      <point x="414" y="52" type="curve" smooth="yes"/>
      <point x="223" y="52" type="line"/>
      <point x="223" y="619" type="line" smooth="yes"/>
      <point x="223" y="648"/>
      <point x="259" y="655"/>
      <point x="313" y="655" type="curve" smooth="yes"/>
      <point x="332" y="655" type="line"/>
    </contour>
  </outline>
</glyph>
<glyph name="M" format="2">
  <advance width="971"/>
  <unicode hex="004D"/>
  <anchor x="462.8" y="0.0" name="bottom"/>
  <outline>
    <contour>
      <point x="58" y="0" type="line"/>
      <point x="286" y="0" type="line"/>
      <point x="286" y="55" type="line"/>
      <point x="282" y="55" type="line" smooth="yes"/>
      <point x="259" y="55"/>
      <point x="210" y="58"/>
      <point x="210" y="65" type="curve" smooth="yes"/>
      <point x="210" y="681" type="line"/>
      <point x="452" y="-2" type="line"/>
      <point x="506" y="-2" type="line"/>
      <point x="749" y="684" type="line"/>
      <point x="749" y="65" type="line" smooth="yes"/>
      <point x="749" y="58"/>
      <point x="700" y="55"/>
      <point x="672" y="55" type="curve" smooth="yes"/>
      <point x="663" y="55" type="line"/>
      <point x="663" y="0" type="line"/>
      <point x="913" y="0" type="line"/>
      <point x="913" y="55" type="line"/>
      <point x="902" y="55" type="line" smooth="yes"/>
      <point x="853" y="55"/>
      <point x="817" y="62"/>
      <point x="817" y="91" type="curve" smooth="yes"/>
      <point x="817" y="619" type="line" smooth="yes"/>
      <point x="817" y="648"/>
      <point x="853" y="655"/>
      <point x="902" y="655" type="curve" smooth="yes"/>
      <point x="913" y="655" type="line"/>
      <point x="913" y="710" type="line"/>
      <point x="702" y="710" type="line"/>
      <point x="488" y="88" type="line"/>
      <point x="275" y="710" type="line"/>
      <point x="58" y="710" type="line"/>
      <point x="58" y="655" type="line"/>
      <point x="69" y="655" type="line" smooth="yes"/>
      <point x="118" y="655"/>
      <point x="154" y="648"/>
      <point x="154" y="619" type="curve" smooth="yes"/>
      <point x="154" y="91" type="line" smooth="yes"/>
      <point x="154" y="62"/>
      <point x="118" y="55"/>
      <point x="69" y="55" type="curve" smooth="yes"/>
      <point x="58" y="55" type="line"/>
    </contour>
  </outline>
</glyph>
<glyph name="N" format="2">
  <advance width="831"/>
  <unicode hex="004E"/>
  <anchor x="423.1333333333333" y="741.0" name="top"/>
  <anchor x="423.1333333333333" y="0.0" name="bottom"/>
  <outline>
    <contour>
      <point x="58" y="0" type="line"/>
      <point x="306" y="0" type="line"/>
      <point x="306" y="55" type="line"/>
      <point x="292" y="55" type="line" smooth="yes"/>
      <point x="259" y="55"/>
      <point x="210" y="58"/>
      <point x="210" y="65" type="curve"/>
      <point x="210" y="648" type="line"/>
      <point x="596" y="0" type="line"/>
      <point x="676" y="0" type="line"/>
      <point x="676" y="619" type="line" smooth="yes"/>
      <point x="676" y="648"/>
      <point x="712" y="655"/>
      <point x="761" y="655" type="curve" smooth="yes"/>
      <point x="772" y="655" type="line"/>
      <point x="772" y="710" type="line"/>
      <point x="524" y="710" type="line"/>
      <point x="524" y="655" type="line"/>
      <point x="538" y="655" type="line" smooth="yes"/>
      <point x="571" y="655"/>
      <point x="620" y="652"/>
      <point x="620" y="645" type="curve" smooth="yes"/>
      <point x="620" y="92" type="line"/>
      <point x="252" y="710" type="line"/>
      <point x="58" y="710" type="line"/>
      <point x="58" y="655" type="line"/>
      <point x="69" y="655" type="line" smooth="yes"/>
      <point x="118" y="655"/>
      <point x="154" y="648"/>
      <point x="154" y="619" type="curve" smooth="yes"/>
      <point x="154" y="91" type="line" smooth="yes"/>
      <point x="154" y="62"/>
      <point x="118" y="55"/>
      <point x="69" y="55" type="curve" smooth="yes"/>
      <point x="58" y="55" type="line"/>
    </contour>
  </outline>
</glyph>
<glyph name="O" format="2">
  <advance width="805"/>
  <unicode hex="004F"/>
  <outline>
    <contour>
      <point x="403" y="-25" type="curve" smooth="yes"/>
      <point x="608" y="-25"/>
      <point x="747" y="104"/>
      <point x="747" y="355" type="curve" smooth="yes"/>
      <point x="747" y="606"/>
      <point x="608" y="735"/>
      <point x="403" y="735" type="curve" smooth="yes"/>
      <point x="198" y="735"/>
      <point x="59" y="606"/>
      <point x="59" y="355" type="curve" smooth="yes"/>
      <point x="59" y="104"/>
      <point x="198" y="-25"/>
    </contour>
    <contour>
      <point x="403" y="29" type="curve" smooth="yes"/>
      <point x="231" y="29"/>
      <point x="135" y="130"/>
      <point x="135" y="355" type="curve" smooth="yes"/>
      <point x="135" y="580"/>
      <point x="231" y="681"/>
      <point x="403" y="681" type="curve" smooth="yes"/>
      <point x="575" y="681"/>
      <point x="672" y="580"/>
      <point x="670" y="355" type="curve" smooth="yes"/>
      <point x="668" y="130"/>
      <point x="575" y="29"/>
    </contour>
  </outline>
</glyph>
<glyph name="Q" format="2">
  <advance width="805"/>
  <unicode hex="0051"/>
  <outline>
    <contour>
      <point x="754" y="-222" type="curve"/>
      <point x="754" y="-150" type="line"/>
      <point x="709" y="-163"/>
      <point x="655" y="-175"/>
      <point x="596" y="-175" type="curve" smooth="yes"/>
      <point x="488" y="-175"/>
      <point x="444" y="-127"/>
      <point x="434" y="-24" type="curve"/>
      <point x="622" y="-11"/>
      <point x="747" y="117"/>
      <point x="747" y="355" type="curve" smooth="yes"/>
      <point x="747" y="606"/>
      <point x="608" y="735"/>
      <point x="403" y="735" type="curve" smooth="yes"/>
      <point x="198" y="735"/>
      <point x="59" y="606"/>
      <point x="59" y="355" type="curve" smooth="yes"/>
      <point x="59" y="114"/>
      <point x="187" y="-14"/>
      <point x="378" y="-24" type="curve"/>
      <point x="384" y="-166"/>
      <point x="448" y="-239"/>
      <point x="600" y="-239" type="curve" smooth="yes"/>
      <point x="656" y="-239"/>
      <point x="714" y="-231"/>
    </contour>
    <contour>
      <point x="403" y="29" type="curve" smooth="yes"/>
      <point x="231" y="29"/>
      <point x="135" y="130"/>
      <point x="135" y="355" type="curve" smooth="yes"/>
      <point x="135" y="580"/>
      <point x="231" y="681"/>
      <point x="403" y="681" type="curve" smooth="yes"/>
      <point x="575" y="681"/>
      <point x="672" y="580"/>
      <point x="670" y="355" type="curve" smooth="yes"/>
      <point x="668" y="130"/>
      <point x="575" y="29"/>
    </contour>
  </outline>
</glyph>
<glyph name="R" format="2">
  <advance width="746"/>
  <unicode hex="0052"/>
  <anchor x="407.0" y="741.0" name="top"/>
  <anchor x="407.0" y="0.0" name="bottom"/>
  <outline>
    <contour>
      <point x="222" y="65" type="curve" smooth="yes"/>
      <point x="222" y="305" type="line"/>
      <point x="401" y="305" type="line"/>
      <point x="575" y="0" type="line"/>
      <point x="715" y="0" type="line"/>
      <point x="715" y="56" type="line"/>
      <point x="703" y="56" type="line" smooth="yes"/>
      <point x="657" y="56"/>
      <point x="623" y="67"/>
      <point x="593" y="118" type="curve" smooth="yes"/>
      <point x="469" y="326" type="line"/>
      <point x="562" y="354"/>
      <point x="622" y="419"/>
      <point x="622" y="520" type="curve" smooth="yes"/>
      <point x="622" y="647"/>
      <point x="535" y="710"/>
      <point x="387" y="710" type="curve" smooth="yes"/>
      <point x="56" y="710" type="line"/>
      <point x="56" y="655" type="line"/>
      <point x="67" y="655" type="line" smooth="yes"/>
      <point x="116" y="655"/>
      <point x="152" y="648"/>
      <point x="152" y="619" type="curve" smooth="yes"/>
      <point x="152" y="91" type="line" smooth="yes"/>
      <point x="152" y="62"/>
      <point x="116" y="55"/>
      <point x="67" y="55" type="curve" smooth="yes"/>
      <point x="56" y="55" type="line"/>
      <point x="56" y="0" type="line"/>
      <point x="336" y="0" type="line"/>
      <point x="336" y="55" type="line"/>
      <point x="317" y="55" type="line" smooth="yes"/>
      <point x="269" y="55"/>
      <point x="222" y="58"/>
    </contour>
    <contour>
      <point x="222" y="658" type="line"/>
      <point x="385" y="658" type="line" smooth="yes"/>
      <point x="496" y="658"/>
      <point x="546" y="611"/>
      <point x="546" y="511" type="curve" smooth="yes"/>
      <point x="546" y="418"/>
      <point x="498" y="355"/>
      <point x="384" y="355" type="curve" smooth="yes"/>
      <point x="222" y="355" type="line"/>
    </contour>
  </outline>
</glyph>
<glyph name="T" format="2">
  <advance width="678"/>
  <unicode hex="0054"/>
  <anchor x="337.1333333333333" y="741.0" name="top"/>
  <anchor x="337.1333333333333" y="0.0" name="bottom"/>
  <outline>
    <contour>
      <point x="304" y="91" type="line" smooth="yes"/>
      <point x="304" y="62"/>
      <point x="263" y="55"/>
      <point x="214" y="55" type="curve" smooth="yes"/>
      <point x="194" y="55" type="line"/>
      <point x="194" y="0" type="line"/>
      <point x="485" y="0" type="line"/>
      <point x="485" y="55" type="line"/>
      <point x="465" y="55" type="line" smooth="yes"/>
      <point x="416" y="55"/>
      <point x="375" y="62"/>
      <point x="375" y="91" type="curve" smooth="yes"/>
      <point x="375" y="658" type="line"/>
      <point x="442" y="658" type="line" smooth="yes"/>
      <point x="532" y="658"/>
      <point x="567" y="642"/>
      <point x="572" y="601" type="curve" smooth="yes"/>
      <point x="584" y="479" type="line"/>
      <point x="638" y="479" type="line"/>
      <point x="638" y="710" type="line"/>
      <point x="41" y="710" type="line"/>
      <point x="41" y="479" type="line"/>
      <point x="94" y="479" type="line"/>
      <point x="107" y="601" type="line" smooth="yes"/>
      <point x="111" y="642"/>
      <point x="146" y="658"/>
      <point x="237" y="658" type="curve" smooth="yes"/>
      <point x="304" y="658" type="line"/>
    </contour>
  </outline>
</glyph>
<glyph name="U" format="2">
  <advance width="822"/>
  <unicode hex="0055"/>
  <anchor x="409.0" y="741.0" name="top"/>
  <anchor x="464.46666666666664" y="0.0" name="right"/>
  <anchor x="409.0" y="0.0" name="bottom"/>
  <outline>
    <contour>
      <point x="219" y="256" type="curve" smooth="yes"/>
      <point x="219" y="645" type="line" smooth="yes"/>
      <point x="219" y="652"/>
      <point x="268" y="655"/>
      <point x="306" y="655" type="curve" smooth="yes"/>
      <point x="315" y="655" type="line"/>
      <point x="315" y="710" type="line"/>
      <point x="52" y="710" type="line"/>
      <point x="52" y="655" type="line"/>
      <point x="63" y="655" type="line" smooth="yes"/>
      <point x="112" y="655"/>
      <point x="148" y="648"/>
      <point x="148" y="619" type="curve" smooth="yes"/>
      <point x="148" y="256" type="line" smooth="yes"/>
      <point x="148" y="55"/>
      <point x="260" y="-25"/>
      <point x="413" y="-25" type="curve" smooth="yes"/>
      <point x="558" y="-25"/>
      <point x="674" y="54"/>
      <point x="674" y="256" type="curve" smooth="yes"/>
      <point x="674" y="610" type="line" smooth="yes"/>
      <point x="674" y="644"/>
      <point x="710" y="655"/>
      <point x="759" y="655" type="curve" smooth="yes"/>
      <point x="770" y="655" type="line"/>
      <point x="770" y="710" type="line"/>
      <point x="523" y="710" type="line"/>
      <point x="523" y="655" type="line"/>
      <point x="532" y="655" type="line" smooth="yes"/>
      <point x="570" y="655"/>
      <point x="619" y="648"/>
      <point x="619" y="636" type="curve" smooth="yes"/>
      <point x="619" y="256" type="line" smooth="yes"/>
      <point x="619" y="91"/>
      <point x="535" y="35"/>
      <point x="420" y="35" type="curve" smooth="yes"/>
      <point x="305" y="35"/>
      <point x="219" y="90"/>
    </contour>
  </outline>
</glyph>
<glyph name="V" format="2">
  <advance width="736"/>
  <unicode hex="0056"/>
  <outline>
    <contour>
      <point x="616" y="591" type="line" smooth="yes"/>
      <point x="633" y="644"/>
      <point x="661" y="655"/>
      <point x="702" y="655" type="curve" smooth="yes"/>
      <point x="708" y="655" type="line"/>
      <point x="708" y="710" type="line"/>
      <point x="471" y="710" type="line"/>
      <point x="471" y="655" type="line"/>
      <point x="481" y="655" type="line" smooth="yes"/>
      <point x="537" y="655"/>
      <point x="571" y="645"/>
      <point x="571" y="632" type="curve"/>
      <point x="375" y="35" type="line"/>
      <point x="175" y="644" type="line"/>
      <point x="175" y="651"/>
      <point x="209" y="655"/>
      <point x="265" y="655" type="curve" smooth="yes"/>
      <point x="275" y="655" type="line"/>
      <point x="275" y="710" type="line"/>
      <point x="28" y="710" type="line"/>
      <point x="28" y="655" type="line"/>
      <point x="34" y="655" type="line" smooth="yes"/>
      <point x="75" y="655"/>
      <point x="102" y="644"/>
      <point x="120" y="591" type="curve" smooth="yes"/>
      <point x="322" y="-12" type="line"/>
      <point x="417" y="-12" type="line"/>
    </contour>
  </outline>
</glyph>
<glyph name="W" format="2">
  <advance width="1082"/>
  <unicode hex="0057"/>
  <anchor x="551.6" y="741.0" name="top"/>
  <outline>
    <contour>
      <point x="28" y="710" type="line"/>
      <point x="28" y="655" type="line"/>
      <point x="35" y="655" type="line" smooth="yes"/>
      <point x="74" y="655"/>
      <point x="102" y="649"/>
      <point x="113" y="606" type="curve" smooth="yes"/>
      <point x="275" y="-6" type="line"/>
      <point x="368" y="-6" type="line"/>
      <point x="542" y="630" type="line"/>
      <point x="723" y="-6" type="line"/>
      <point x="815" y="-6" type="line"/>
      <point x="968" y="600" type="line" smooth="yes"/>
      <point x="978" y="643"/>
      <point x="1007" y="655"/>
      <point x="1047" y="655" type="curve" smooth="yes"/>
      <point x="1053" y="655" type="line"/>
      <point x="1053" y="710" type="line"/>
      <point x="829" y="710" type="line"/>
      <point x="829" y="655" type="line"/>
      <point x="842" y="655" type="line" smooth="yes"/>
      <point x="885" y="655"/>
      <point x="923" y="645"/>
      <point x="923" y="632" type="curve"/>
      <point x="775" y="45" type="line"/>
      <point x="588" y="710" type="line"/>
      <point x="512" y="710" type="line"/>
      <point x="328" y="44" type="line"/>
      <point x="173" y="644" type="line"/>
      <point x="173" y="651"/>
      <point x="212" y="655"/>
      <point x="256" y="655" type="curve" smooth="yes"/>
      <point x="269" y="655" type="line"/>
      <point x="269" y="710" type="line"/>
    </contour>
  </outline>
</glyph>
<glyph name="X" format="2">
  <advance width="775"/>
  <unicode hex="0058"/>
  <outline>
    <contour>
      <point x="31" y="0" type="line"/>
      <point x="280" y="0" type="line"/>
      <point x="280" y="55" type="line"/>
      <point x="261" y="55" type="line" smooth="yes"/>
      <point x="224" y="55"/>
      <point x="180" y="63"/>
      <point x="180" y="72" type="curve"/>
      <point x="373" y="330" type="line"/>
      <point x="579" y="65" type="line"/>
      <point x="579" y="58"/>
      <point x="533" y="55"/>
      <point x="497" y="55" type="curve" smooth="yes"/>
      <point x="480" y="55" type="line"/>
      <point x="480" y="0" type="line"/>
      <point x="745" y="0" type="line"/>
      <point x="745" y="55" type="line"/>
      <point x="723" y="55" type="line" smooth="yes"/>
      <point x="686" y="55"/>
      <point x="666" y="59"/>
      <point x="643" y="89" type="curve"/>
      <point x="428" y="365" type="line"/>
      <point x="618" y="610" type="line" smooth="yes"/>
      <point x="647" y="647"/>
      <point x="670" y="655"/>
      <point x="707" y="655" type="curve" smooth="yes"/>
      <point x="722" y="655" type="line"/>
      <point x="722" y="710" type="line"/>
      <point x="477" y="710" type="line"/>
      <point x="477" y="655" type="line"/>
      <point x="492" y="655" type="line" smooth="yes"/>
      <point x="529" y="655"/>
      <point x="575" y="648"/>
      <point x="575" y="638" type="curve"/>
      <point x="394" y="402" type="line"/>
      <point x="204" y="646" type="line"/>
      <point x="204" y="652"/>
      <point x="250" y="655"/>
      <point x="286" y="655" type="curve" smooth="yes"/>
      <point x="303" y="655" type="line"/>
      <point x="303" y="710" type="line"/>
      <point x="44" y="710" type="line"/>
      <point x="44" y="655" type="line"/>
      <point x="60" y="655" type="line" smooth="yes"/>
      <point x="97" y="655"/>
      <point x="117" y="652"/>
      <point x="141" y="621" type="curve"/>
      <point x="338" y="367" type="line"/>
      <point x="137" y="101" type="line" smooth="yes"/>
      <point x="110" y="64"/>
      <point x="87" y="55"/>
      <point x="51" y="55" type="curve" smooth="yes"/>
      <point x="31" y="55" type="line"/>
    </contour>
  </outline>
</glyph>
<glyph name="Y" format="2">
  <advance width="702"/>
  <unicode hex="0059"/>
  <anchor x="369.53333333333336" y="741.0" name="top"/>
  <anchor x="369.53333333333336" y="0.0" name="bottom"/>
  <outline>
    <contour>
      <point x="498" y="55" type="line"/>
      <point x="477" y="55" type="line" smooth="yes"/>
      <point x="427" y="55"/>
      <point x="388" y="62"/>
      <point x="388" y="91" type="curve" smooth="yes"/>
      <point x="388" y="271" type="line"/>
      <point x="583" y="599" type="line" smooth="yes"/>
      <point x="608" y="641"/>
      <point x="627" y="655"/>
      <point x="665" y="655" type="curve" smooth="yes"/>
      <point x="674" y="655" type="line"/>
      <point x="674" y="710" type="line"/>
      <point x="450" y="710" type="line"/>
      <point x="450" y="655" type="line"/>
      <point x="460" y="655" type="line" smooth="yes"/>
      <point x="504" y="655"/>
      <point x="541" y="645"/>
      <point x="541" y="632" type="curve"/>
      <point x="362" y="318" type="line"/>
      <point x="173" y="644" type="line"/>
      <point x="173" y="651"/>
      <point x="209" y="655"/>
      <point x="253" y="655" type="curve" smooth="yes"/>
      <point x="266" y="655" type="line"/>
      <point x="266" y="710" type="line"/>
      <point x="29" y="710" type="line"/>
      <point x="29" y="655" type="line"/>
      <point x="38" y="655" type="line" smooth="yes"/>
      <point x="77" y="655"/>
      <point x="94" y="645"/>
      <point x="118" y="605" type="curve" smooth="yes"/>
      <point x="317" y="271" type="line"/>
      <point x="317" y="91" type="line" smooth="yes"/>
      <point x="317" y="62"/>
      <point x="278" y="55"/>
      <point x="228" y="55" type="curve" smooth="yes"/>
      <point x="208" y="55" type="line"/>
      <point x="208" y="0" type="line"/>
      <point x="498" y="0" type="line"/>
    </contour>
  </outline>
</glyph>
<glyph name="Z" format="2">
  <advance width="657"/>
  <unicode hex="005A"/>
  <anchor x="335.8666666666667" y="741.0" name="top"/>
  <anchor x="335.8666666666667" y="0.0" name="bottom"/>
  <outline>
    <contour>
      <point x="597" y="224" type="line"/>
      <point x="541" y="224" type="line"/>
      <point x="526" y="97" type="line" smooth="yes"/>
      <point x="522" y="61"/>
      <point x="487" y="52"/>
      <point x="401" y="52" type="curve" smooth="yes"/>
      <point x="134" y="52" type="line"/>
      <point x="583" y="649" type="line"/>
      <point x="583" y="710" type="line"/>
      <point x="78" y="710" type="line"/>
      <point x="78" y="494" type="line"/>
      <point x="132" y="494" type="line"/>
      <point x="144" y="605" type="line" smooth="yes"/>
      <point x="149" y="646"/>
      <point x="184" y="658"/>
      <point x="270" y="658" type="curve" smooth="yes"/>
      <point x="506" y="658" type="line"/>
      <point x="60" y="64" type="line"/>
      <point x="60" y="0" type="line"/>
      <point x="597" y="0" type="line"/>
    </contour>
  </outline>
</glyph>
<glyph name="d" format="2">
  <advance width="690"/>
  <unicode hex="0064"/>
  <anchor x="643.3333333333334" y="735.0" name="right"/>
  <anchor x="313.8666666666667" y="0.0" name="bottom"/>
  <outline>
    <contour>
      <point x="283" y="-12" type="curve" smooth="yes"/>
      <point x="368" y="-12"/>
      <point x="435" y="37"/>
      <point x="496" y="121" type="curve"/>
      <point x="518" y="0" type="line"/>
      <point x="654" y="0" type="line"/>
      <point x="654" y="52" type="line"/>
      <point x="644" y="54" type="line" smooth="yes"/>
      <point x="593" y="64"/>
      <point x="563" y="70"/>
      <point x="563" y="99" type="curve" smooth="yes"/>
      <point x="563" y="780" type="line"/>
      <point x="405" y="780" type="line"/>
      <point x="405" y="728" type="line"/>
      <point x="414" y="726" type="line" smooth="yes"/>
      <point x="467" y="714"/>
      <point x="494" y="710"/>
      <point x="494" y="681" type="curve" smooth="yes"/>
      <point x="494" y="451" type="line"/>
      <point x="446" y="530"/>
      <point x="381" y="576"/>
      <point x="297" y="576" type="curve" smooth="yes"/>
      <point x="139" y="576"/>
      <point x="51" y="452"/>
      <point x="51" y="278" type="curve" smooth="yes"/>
      <point x="51" y="104"/>
      <point x="126" y="-12"/>
    </contour>
    <contour>
      <point x="125" y="278" type="curve" smooth="yes"/>
      <point x="125" y="441"/>
      <point x="185" y="521"/>
      <point x="305" y="521" type="curve" smooth="yes"/>
      <point x="387" y="521"/>
      <point x="446" y="482"/>
      <point x="494" y="412" type="curve"/>
      <point x="494" y="157" type="line"/>
      <point x="434" y="82"/>
      <point x="374" y="43"/>
      <point x="293" y="43" type="curve" smooth="yes"/>
      <point x="171" y="43"/>
      <point x="125" y="123"/>
    </contour>
  </outline>
</glyph>
<glyph name="g" format="2">
  <advance width="701"/>
  <unicode hex="0067"/>
  <anchor x="327.53333333333336" y="545.0" name="top"/>
  <outline>
    <contour>
      <point x="245" y="-252" type="curve" smooth="yes"/>
      <point x="395" y="-252" type="line" smooth="yes"/>
      <point x="523" y="-252"/>
      <point x="626" y="-192"/>
      <point x="626" y="-73" type="curve" smooth="yes"/>
      <point x="626" y="19"/>
      <point x="568" y="59"/>
      <point x="475" y="59" type="curve" smooth="yes"/>
      <point x="222" y="59" type="line" smooth="yes"/>
      <point x="174" y="59"/>
      <point x="153" y="74"/>
      <point x="153" y="112" type="curve" smooth="yes"/>
      <point x="153" y="148"/>
      <point x="172" y="167"/>
      <point x="214" y="202" type="curve"/>
      <point x="245" y="186"/>
      <point x="283" y="177"/>
      <point x="325" y="177" type="curve" smooth="yes"/>
      <point x="453" y="177"/>
      <point x="539" y="255"/>
      <point x="539" y="375" type="curve" smooth="yes"/>
      <point x="539" y="424"/>
      <point x="524" y="467"/>
      <point x="498" y="500" type="curve"/>
      <point x="530" y="519"/>
      <point x="572" y="531"/>
      <point x="665" y="531" type="curve"/>
      <point x="665" y="612" type="line"/>
      <point x="566" y="619"/>
      <point x="516" y="589"/>
      <point x="486" y="514" type="curve"/>
      <point x="448" y="553"/>
      <point x="392" y="576"/>
      <point x="325" y="576" type="curve" smooth="yes"/>
      <point x="199" y="576"/>
      <point x="112" y="495"/>
      <point x="112" y="375" type="curve" smooth="yes"/>
      <point x="112" y="305"/>
      <point x="141" y="250"/>
      <point x="190" y="215" type="curve"/>
      <point x="128" y="180"/>
      <point x="86" y="143"/>
      <point x="86" y="86" type="curve" smooth="yes"/>
      <point x="86" y="42"/>
      <point x="112" y="14"/>
      <point x="153" y="0" type="curve"/>
      <point x="83" y="-39"/>
      <point x="51" y="-73"/>
      <point x="51" y="-133" type="curve" smooth="yes"/>
      <point x="51" y="-211"/>
      <point x="116" y="-252"/>
    </contour>
    <contour>
      <point x="325" y="228" type="curve" smooth="yes"/>
      <point x="230" y="228"/>
      <point x="182" y="277"/>
      <point x="182" y="375" type="curve" smooth="yes"/>
      <point x="182" y="474"/>
      <point x="231" y="525"/>
      <point x="325" y="525" type="curve" smooth="yes"/>
      <point x="421" y="525"/>
      <point x="469" y="474"/>
      <point x="469" y="375" type="curve" smooth="yes"/>
      <point x="469" y="277"/>
      <point x="421" y="228"/>
    </contour>
    <contour>
      <point x="248" y="-202" type="line" smooth="yes"/>
      <point x="148" y="-202"/>
      <point x="118" y="-170"/>
      <point x="118" y="-117" type="curve" smooth="yes"/>
      <point x="118" y="-74"/>
      <point x="133" y="-47"/>
      <point x="186" y="-7" type="curve"/>
      <point x="191" y="-8"/>
      <point x="197" y="-8"/>
      <point x="202" y="-8" type="curve"/>
      <point x="201" y="-10" type="line"/>
      <point x="474" y="-10" type="line" smooth="yes"/>
      <point x="535" y="-10"/>
      <point x="559" y="-35"/>
      <point x="559" y="-80" type="curve" smooth="yes"/>
      <point x="559" y="-162"/>
      <point x="508" y="-202"/>
      <point x="395" y="-202" type="curve" smooth="yes"/>
    </contour>
  </outline>
</glyph>
<glyph name="i" format="2">
  <advance width="344"/>
  <unicode hex="0069"/>
  <anchor x="176.4" y="551.0" name="top"/>
  <anchor x="228.8" y="-10.0" name="right"/>
  <anchor x="177.46666666666667" y="-10.0" name="bottom"/>
  <outline>
    <contour>
      <point x="167" y="684" type="curve" smooth="yes"/>
      <point x="202" y="684"/>
      <point x="229" y="701"/>
      <point x="229" y="745" type="curve" smooth="yes"/>
      <point x="229" y="788"/>
      <point x="202" y="806"/>
      <point x="167" y="806" type="curve" smooth="yes"/>
      <point x="130" y="806"/>
      <point x="105" y="788"/>
      <point x="105" y="745" type="curve" smooth="yes"/>
      <point x="105" y="701"/>
      <point x="130" y="684"/>
    </contour>
    <contour>
      <point x="214" y="565" type="line"/>
      <point x="54" y="565" type="line"/>
      <point x="54" y="513" type="line"/>
      <point x="64" y="511" type="line" smooth="yes"/>
      <point x="118" y="500"/>
      <point x="146" y="495"/>
      <point x="146" y="466" type="curve" smooth="yes"/>
      <point x="146" y="121" type="line" smooth="yes"/>
      <point x="146" y="61"/>
      <point x="115" y="45"/>
      <point x="59" y="45" type="curve" smooth="yes"/>
      <point x="54" y="45" type="line"/>
      <point x="54" y="0" type="line"/>
      <point x="305" y="0" type="line"/>
      <point x="305" y="45" type="line"/>
      <point x="301" y="45" type="line" smooth="yes"/>
      <point x="245" y="45"/>
      <point x="214" y="61"/>
      <point x="214" y="121" type="curve" smooth="yes"/>
    </contour>
  </outline>
</glyph>
<glyph name="j" format="2">
  <advance width="332"/>
  <unicode hex="006A"/>
  <anchor x="164.06666666666666" y="551.0" name="top"/>
  <outline>
    <contour>
      <point x="166" y="684" type="curve" smooth="yes"/>
      <point x="201" y="684"/>
      <point x="228" y="701"/>
      <point x="228" y="745" type="curve" smooth="yes"/>
      <point x="228" y="788"/>
      <point x="201" y="806"/>
      <point x="166" y="806" type="curve" smooth="yes"/>
      <point x="129" y="806"/>
      <point x="104" y="788"/>
      <point x="104" y="745" type="curve" smooth="yes"/>
      <point x="104" y="701"/>
      <point x="129" y="684"/>
    </contour>
    <contour>
      <point x="144" y="-79" type="line" smooth="yes"/>
      <point x="144" y="-174"/>
      <point x="105" y="-196"/>
      <point x="37" y="-196" type="curve" smooth="yes"/>
      <point x="-7" y="-196"/>
      <point x="-41" y="-188"/>
      <point x="-61" y="-182" type="curve"/>
      <point x="-61" y="-238" type="line"/>
      <point x="-45" y="-244"/>
      <point x="-5" y="-250"/>
      <point x="37" y="-250" type="curve" smooth="yes"/>
      <point x="132" y="-250"/>
      <point x="213" y="-211"/>
      <point x="213" y="-79" type="curve" smooth="yes"/>
      <point x="213" y="565" type="line"/>
      <point x="41" y="565" type="line"/>
      <point x="41" y="513" type="line"/>
      <point x="54" y="511" type="line" smooth="yes"/>
      <point x="108" y="503"/>
      <point x="144" y="495"/>
      <point x="144" y="466" type="curve" smooth="yes"/>
    </contour>
  </outline>
</glyph>
<glyph name="k" format="2">
  <advance width="678"/>
  <unicode hex="006B"/>
  <anchor x="338.06666666666666" y="0.0" name="bottom"/>
  <outline>
    <contour>
      <point x="208" y="780" type="line"/>
      <point x="49" y="780" type="line"/>
      <point x="49" y="728" type="line"/>
      <point x="59" y="726" type="line" smooth="yes"/>
      <point x="113" y="715"/>
      <point x="140" y="710"/>
      <point x="140" y="681" type="curve" smooth="yes"/>
      <point x="140" y="121" type="line" smooth="yes"/>
      <point x="140" y="61"/>
      <point x="109" y="45"/>
      <point x="53" y="45" type="curve" smooth="yes"/>
      <point x="49" y="45" type="line"/>
      <point x="49" y="0" type="line"/>
      <point x="287" y="0" type="line"/>
      <point x="287" y="45" type="line"/>
      <point x="281" y="45" type="line" smooth="yes"/>
      <point x="254" y="45"/>
      <point x="208" y="48"/>
      <point x="208" y="55" type="curve" smooth="yes"/>
    </contour>
    <contour>
      <point x="656" y="0" type="line"/>
      <point x="656" y="45" type="line"/>
      <point x="642" y="45" type="line" smooth="yes"/>
      <point x="600" y="45"/>
      <point x="575" y="52"/>
      <point x="548" y="82" type="curve" smooth="yes"/>
      <point x="331" y="310" type="line"/>
      <point x="521" y="484" type="line" smooth="yes"/>
      <point x="553" y="514"/>
      <point x="574" y="520"/>
      <point x="614" y="520" type="curve" smooth="yes"/>
      <point x="628" y="520" type="line"/>
      <point x="628" y="565" type="line"/>
      <point x="376" y="565" type="line"/>
      <point x="376" y="520" type="line"/>
      <point x="389" y="520" type="line" smooth="yes"/>
      <point x="425" y="520"/>
      <point x="476" y="513"/>
      <point x="476" y="506" type="curve"/>
      <point x="259" y="305" type="line"/>
      <point x="259" y="295" type="line"/>
      <point x="481" y="55" type="line"/>
      <point x="481" y="49"/>
      <point x="440" y="45"/>
      <point x="409" y="45" type="curve" smooth="yes"/>
      <point x="401" y="45" type="line"/>
      <point x="401" y="0" type="line"/>
    </contour>
  </outline>
</glyph>
<glyph name="m" format="2">
  <advance width="1017"/>
  <unicode hex="006D"/>
  <outline>
    <contour>
      <point x="50" y="0" type="line"/>
      <point x="287" y="0" type="line"/>
      <point x="287" y="45" type="line"/>
      <point x="282" y="45" type="line" smooth="yes"/>
      <point x="254" y="45"/>
      <point x="210" y="48"/>
      <point x="210" y="55" type="curve" smooth="yes"/>
      <point x="210" y="417" type="line"/>
      <point x="272" y="483"/>
      <point x="327" y="518"/>
      <point x="389" y="518" type="curve" smooth="yes"/>
      <point x="457" y="518"/>
      <point x="481" y="486"/>
      <point x="481" y="426" type="curve" smooth="yes"/>
      <point x="481" y="55" type="line" smooth="yes"/>
      <point x="481" y="48"/>
      <point x="437" y="45"/>
      <point x="409" y="45" type="curve" smooth="yes"/>
      <point x="404" y="45" type="line"/>
      <point x="404" y="0" type="line"/>
      <point x="627" y="0" type="line"/>
      <point x="627" y="45" type="line"/>
      <point x="622" y="45" type="line" smooth="yes"/>
      <point x="594" y="45"/>
      <point x="550" y="48"/>
      <point x="550" y="55" type="curve" smooth="yes"/>
      <point x="550" y="417" type="line"/>
      <point x="613" y="483"/>
      <point x="667" y="518"/>
      <point x="730" y="518" type="curve" smooth="yes"/>
      <point x="798" y="518"/>
      <point x="822" y="486"/>
      <point x="822" y="426" type="curve" smooth="yes"/>
      <point x="822" y="55" type="line" smooth="yes"/>
      <point x="822" y="48"/>
      <point x="778" y="45"/>
      <point x="750" y="45" type="curve" smooth="yes"/>
      <point x="745" y="45" type="line"/>
      <point x="745" y="0" type="line"/>
      <point x="982" y="0" type="line"/>
      <point x="982" y="45" type="line"/>
      <point x="978" y="45" type="line" smooth="yes"/>
      <point x="922" y="45"/>
      <point x="891" y="61"/>
      <point x="891" y="121" type="curve" smooth="yes"/>
      <point x="891" y="435" type="line" smooth="yes"/>
      <point x="891" y="524"/>
      <point x="848" y="576"/>
      <point x="757" y="576" type="curve" smooth="yes"/>
      <point x="680" y="576"/>
      <point x="612" y="531"/>
      <point x="550" y="452" type="curve"/>
      <point x="544" y="531"/>
      <point x="502" y="576"/>
      <point x="417" y="576" type="curve" smooth="yes"/>
      <point x="339" y="576"/>
      <point x="270" y="530"/>
      <point x="207" y="450" type="curve"/>
      <point x="186" y="565" type="line"/>
      <point x="50" y="565" type="line"/>
      <point x="50" y="513" type="line"/>
      <point x="60" y="511" type="line" smooth="yes"/>
      <point x="114" y="500"/>
      <point x="141" y="495"/>
      <point x="141" y="466" type="curve" smooth="yes"/>
      <point x="141" y="121" type="line" smooth="yes"/>
      <point x="141" y="61"/>
      <point x="110" y="45"/>
      <point x="54" y="45" type="curve" smooth="yes"/>
      <point x="50" y="45" type="line"/>
    </contour>
  </outline>
</glyph>
<glyph name="n" format="2">
  <advance width="696"/>
  <unicode hex="006E"/>
  <anchor x="338.6666666666667" y="551.0" name="top"/>
  <anchor x="346.1333333333333" y="0.0" name="bottom"/>
  <outline>
    <contour>
      <point x="49" y="0" type="line"/>
      <point x="285" y="0" type="line"/>
      <point x="285" y="45" type="line"/>
      <point x="280" y="45" type="line" smooth="yes"/>
      <point x="252" y="45"/>
      <point x="208" y="48"/>
      <point x="208" y="55" type="curve" smooth="yes"/>
      <point x="208" y="415" type="line"/>
      <point x="274" y="483"/>
      <point x="334" y="518"/>
      <point x="400" y="518" type="curve" smooth="yes"/>
      <point x="475" y="518"/>
      <point x="502" y="486"/>
      <point x="502" y="426" type="curve" smooth="yes"/>
      <point x="502" y="55" type="line" smooth="yes"/>
      <point x="502" y="48"/>
      <point x="458" y="45"/>
      <point x="430" y="45" type="curve" smooth="yes"/>
      <point x="425" y="45" type="line"/>
      <point x="425" y="0" type="line"/>
      <point x="662" y="0" type="line"/>
      <point x="662" y="45" type="line"/>
      <point x="658" y="45" type="line" smooth="yes"/>
      <point x="602" y="45"/>
      <point x="571" y="61"/>
      <point x="571" y="121" type="curve" smooth="yes"/>
      <point x="571" y="435" type="line" smooth="yes"/>
      <point x="571" y="524"/>
      <point x="525" y="576"/>
      <point x="428" y="576" type="curve" smooth="yes"/>
      <point x="345" y="576"/>
      <point x="270" y="530"/>
      <point x="206" y="445" type="curve"/>
      <point x="185" y="565" type="line"/>
      <point x="49" y="565" type="line"/>
      <point x="49" y="513" type="line"/>
      <point x="59" y="511" type="line" smooth="yes"/>
      <point x="113" y="500"/>
      <point x="140" y="495"/>
      <point x="140" y="466" type="curve" smooth="yes"/>
      <point x="140" y="121" type="line" smooth="yes"/>
      <point x="140" y="61"/>
      <point x="109" y="45"/>
      <point x="53" y="45" type="curve" smooth="yes"/>
      <point x="49" y="45" type="line"/>
    </contour>
  </outline>
</glyph>
<glyph name="o" format="2">
  <advance width="637"/>
  <unicode hex="006F"/>
  <anchor x="318.4" y="551.0" name="top"/>
  <anchor x="416.0" y="0.0" name="right"/>
  <anchor x="318.4" y="0.0" name="bottom"/>
  <outline>
    <contour>
      <point x="318" y="-13" type="curve" smooth="yes"/>
      <point x="486" y="-13"/>
      <point x="586" y="95"/>
      <point x="586" y="281" type="curve" smooth="yes"/>
      <point x="586" y="467"/>
      <point x="486" y="575"/>
      <point x="318" y="575" type="curve" smooth="yes"/>
      <point x="150" y="575"/>
      <point x="51" y="467"/>
      <point x="51" y="281" type="curve" smooth="yes"/>
      <point x="51" y="95"/>
      <point x="150" y="-13"/>
    </contour>
    <contour>
      <point x="318" y="41" type="curve" smooth="yes"/>
      <point x="184" y="41"/>
      <point x="125" y="112"/>
      <point x="125" y="281" type="curve" smooth="yes"/>
      <point x="125" y="440"/>
      <point x="184" y="521"/>
      <point x="318" y="521" type="curve" smooth="yes"/>
      <point x="453" y="521"/>
      <point x="512" y="440"/>
      <point x="512" y="281" type="curve" smooth="yes"/>
      <point x="512" y="111"/>
      <point x="453" y="41"/>
    </contour>
  </outline>
</glyph>
<glyph name="q" format="2">
  <advance width="670"/>
  <unicode hex="0071"/>
  <outline>
    <contour>
      <point x="283" y="-12" type="curve" smooth="yes"/>
      <point x="367" y="-12"/>
      <point x="434" y="36"/>
      <point x="494" y="118" type="curve"/>
      <point x="494" y="-168" type="line" smooth="yes"/>
      <point x="494" y="-175"/>
      <point x="445" y="-178"/>
      <point x="414" y="-178" type="curve" smooth="yes"/>
      <point x="389" y="-178" type="line"/>
      <point x="389" y="-223" type="line"/>
      <point x="649" y="-223" type="line"/>
      <point x="649" y="-178" type="line"/>
      <point x="645" y="-178" type="line" smooth="yes"/>
      <point x="592" y="-178"/>
      <point x="563" y="-162"/>
      <point x="563" y="-102" type="curve" smooth="yes"/>
      <point x="563" y="571" type="line"/>
      <point x="519" y="571" type="line"/>
      <point x="496" y="448" type="line"/>
      <point x="447" y="529"/>
      <point x="382" y="576"/>
      <point x="297" y="576" type="curve" smooth="yes"/>
      <point x="139" y="576"/>
      <point x="51" y="451"/>
      <point x="51" y="278" type="curve" smooth="yes"/>
      <point x="51" y="104"/>
      <point x="126" y="-12"/>
    </contour>
    <contour>
      <point x="125" y="278" type="curve" smooth="yes"/>
      <point x="125" y="441"/>
      <point x="185" y="520"/>
      <point x="305" y="520" type="curve" smooth="yes"/>
      <point x="387" y="520"/>
      <point x="446" y="481"/>
      <point x="494" y="412" type="curve"/>
      <point x="494" y="156" type="line"/>
      <point x="434" y="81"/>
      <point x="374" y="43"/>
      <point x="293" y="43" type="curve" smooth="yes"/>
      <point x="171" y="43"/>
      <point x="125" y="122"/>
    </contour>
  </outline>
</glyph>
<glyph name="t" format="2">
  <advance width="470"/>
  <unicode hex="0074"/>
  <anchor x="193.93333333333334" y="675.0" name="top"/>
  <anchor x="367.1333333333333" y="681.0" name="right"/>
  <anchor x="306.73333333333335" y="0.0" name="bottom"/>
  <outline>
    <contour>
      <point x="212" y="139" type="curve" smooth="yes"/>
      <point x="212" y="511" type="line"/>
      <point x="409" y="511" type="line"/>
      <point x="409" y="565" type="line"/>
      <point x="212" y="565" type="line"/>
      <point x="212" y="733" type="line"/>
      <point x="149" y="733" type="line"/>
      <point x="149" y="640" type="line"/>
      <point x="149" y="569"/>
      <point x="111" y="560"/>
      <point x="39" y="560" type="curve" smooth="yes"/>
      <point x="22" y="560" type="line"/>
      <point x="22" y="511" type="line"/>
      <point x="143" y="511" type="line"/>
      <point x="143" y="139" type="line" smooth="yes"/>
      <point x="143" y="12"/>
      <point x="218" y="-12"/>
      <point x="310" y="-12" type="curve" smooth="yes"/>
      <point x="343" y="-12"/>
      <point x="385" y="-8"/>
      <point x="409" y="-1" type="curve"/>
      <point x="409" y="52" type="line"/>
      <point x="403" y="51"/>
      <point x="364" y="45"/>
      <point x="324" y="45" type="curve" smooth="yes"/>
      <point x="251" y="45"/>
      <point x="212" y="61"/>
    </contour>
  </outline>
</glyph>
<glyph name="u" format="2">
  <advance width="681"/>
  <unicode hex="0075"/>
  <anchor x="310.53333333333336" y="551.0" name="top"/>
  <anchor x="484.6666666666667" y="0.0" name="right"/>
  <anchor x="311.6" y="0.0" name="bottom"/>
  <outline>
    <contour>
      <point x="203" y="565" type="line"/>
      <point x="37" y="565" type="line"/>
      <point x="37" y="516" type="line"/>
      <point x="50" y="515" type="line" smooth="yes"/>
      <point x="106" y="512"/>
      <point x="134" y="499"/>
      <point x="134" y="453" type="curve" smooth="yes"/>
      <point x="134" y="130" type="line" smooth="yes"/>
      <point x="134" y="41"/>
      <point x="180" y="-11"/>
      <point x="273" y="-11" type="curve" smooth="yes"/>
      <point x="352" y="-11"/>
      <point x="423" y="36"/>
      <point x="489" y="121" type="curve"/>
      <point x="510" y="0" type="line"/>
      <point x="646" y="0" type="line"/>
      <point x="646" y="52" type="line"/>
      <point x="636" y="54" type="line" smooth="yes"/>
      <point x="583" y="64"/>
      <point x="555" y="70"/>
      <point x="555" y="99" type="curve" smooth="yes"/>
      <point x="555" y="565" type="line"/>
      <point x="382" y="565" type="line"/>
      <point x="382" y="516" type="line"/>
      <point x="402" y="515" type="line" smooth="yes"/>
      <point x="458" y="513"/>
      <point x="486" y="499"/>
      <point x="486" y="453" type="curve"/>
      <point x="486" y="155" type="line"/>
      <point x="421" y="84"/>
      <point x="363" y="47"/>
      <point x="300" y="47" type="curve" smooth="yes"/>
      <point x="229" y="47"/>
      <point x="203" y="79"/>
      <point x="203" y="139" type="curve" smooth="yes"/>
    </contour>
  </outline>
</glyph>
<glyph name="v" format="2">
  <advance width="663"/>
  <unicode hex="0076"/>
  <outline>
    <contour>
      <point x="500" y="494" type="curve"/>
      <point x="335" y="39" type="line"/>
      <point x="170" y="506" type="line"/>
      <point x="170" y="513"/>
      <point x="209" y="514"/>
      <point x="256" y="514" type="curve" smooth="yes"/>
      <point x="264" y="514" type="line"/>
      <point x="264" y="565" type="line"/>
      <point x="21" y="565" type="line"/>
      <point x="21" y="514" type="line"/>
      <point x="28" y="514" type="line" smooth="yes"/>
      <point x="75" y="514"/>
      <point x="101" y="504"/>
      <point x="117" y="459" type="curve" smooth="yes"/>
      <point x="287" y="-13" type="line"/>
      <point x="370" y="-13" type="line"/>
      <point x="547" y="458" type="line" smooth="yes"/>
      <point x="564" y="503"/>
      <point x="585" y="514"/>
      <point x="635" y="514" type="curve" smooth="yes"/>
      <point x="642" y="514" type="line"/>
      <point x="642" y="565" type="line"/>
      <point x="409" y="565" type="line"/>
      <point x="409" y="514" type="line"/>
      <point x="417" y="514" type="line" smooth="yes"/>
      <point x="461" y="514"/>
      <point x="501" y="505"/>
    </contour>
  </outline>
</glyph>
<glyph name="w" format="2">
  <advance width="947"/>
  <unicode hex="0077"/>
  <anchor x="458.4" y="551.0" name="top"/>
  <outline>
    <contour>
      <point x="617" y="-13" type="line"/>
      <point x="700" y="-13" type="line"/>
      <point x="831" y="458" type="line" smooth="yes"/>
      <point x="843" y="503"/>
      <point x="869" y="514"/>
      <point x="919" y="514" type="curve" smooth="yes"/>
      <point x="926" y="514" type="line"/>
      <point x="926" y="565" type="line"/>
      <point x="690" y="565" type="line"/>
      <point x="690" y="514" type="line"/>
      <point x="698" y="514" type="line" smooth="yes"/>
      <point x="744" y="514"/>
      <point x="784" y="505"/>
      <point x="783" y="494" type="curve"/>
      <point x="664" y="40" type="line"/>
      <point x="517" y="565" type="line"/>
      <point x="439" y="565" type="line"/>
      <point x="287" y="42" type="line"/>
      <point x="170" y="506" type="line"/>
      <point x="170" y="513"/>
      <point x="209" y="514"/>
      <point x="258" y="514" type="curve" smooth="yes"/>
      <point x="266" y="514" type="line"/>
      <point x="266" y="565" type="line"/>
      <point x="21" y="565" type="line"/>
      <point x="21" y="514" type="line"/>
      <point x="28" y="514" type="line" smooth="yes"/>
      <point x="75" y="514"/>
      <point x="106" y="504"/>
      <point x="117" y="459" type="curve" smooth="yes"/>
      <point x="237" y="-13" type="line"/>
      <point x="321" y="-13" type="line"/>
      <point x="473" y="498" type="line"/>
    </contour>
  </outline>
</glyph>
<glyph name="x" format="2">
  <advance width="656"/>
  <unicode hex="0078"/>
  <outline>
    <contour>
      <point x="33" y="0" type="line"/>
      <point x="258" y="0" type="line"/>
      <point x="258" y="51" type="line"/>
      <point x="255" y="51" type="line"/>
      <point x="212" y="51"/>
      <point x="171" y="63"/>
      <point x="171" y="76" type="curve"/>
      <point x="316" y="257" type="line"/>
      <point x="477" y="58" type="line"/>
      <point x="477" y="52"/>
      <point x="436" y="51"/>
      <point x="400" y="51" type="curve" smooth="yes"/>
      <point x="397" y="51" type="line"/>
      <point x="397" y="0" type="line"/>
      <point x="622" y="0" type="line"/>
      <point x="622" y="51" type="line"/>
      <point x="617" y="51" type="line"/>
      <point x="571" y="51"/>
      <point x="556" y="60"/>
      <point x="536" y="84" type="curve" smooth="yes"/>
      <point x="366" y="293" type="line"/>
      <point x="526" y="483" type="line" smooth="yes"/>
      <point x="546" y="508"/>
      <point x="569" y="514"/>
      <point x="598" y="514" type="curve"/>
      <point x="603" y="514" type="line"/>
      <point x="603" y="565" type="line"/>
      <point x="385" y="565" type="line"/>
      <point x="385" y="514" type="line"/>
      <point x="389" y="514" type="line"/>
      <point x="430" y="514"/>
      <point x="471" y="503"/>
      <point x="471" y="491" type="curve"/>
      <point x="333" y="325" type="line"/>
      <point x="186" y="507" type="line"/>
      <point x="186" y="513"/>
      <point x="228" y="514"/>
      <point x="264" y="514" type="curve" smooth="yes"/>
      <point x="266" y="514" type="line"/>
      <point x="266" y="565" type="line"/>
      <point x="46" y="565" type="line"/>
      <point x="46" y="514" type="line"/>
      <point x="51" y="514" type="line"/>
      <point x="92" y="514"/>
      <point x="108" y="504"/>
      <point x="128" y="480" type="curve" smooth="yes"/>
      <point x="282" y="290" type="line"/>
      <point x="122" y="93" type="line" smooth="yes"/>
      <point x="97" y="61"/>
      <point x="80" y="51"/>
      <point x="38" y="51" type="curve"/>
      <point x="33" y="51" type="line"/>
    </contour>
  </outline>
</glyph>
<glyph name="y" format="2">
  <advance width="665"/>
  <unicode hex="0079"/>
  <anchor x="340.8666666666667" y="551.0" name="top"/>
  <anchor x="353.8666666666667" y="-211.0" name="bottom"/>
  <outline>
    <contour>
      <point x="372" y="17" type="curve" smooth="yes"/>
      <point x="547" y="465" type="line" smooth="yes"/>
      <point x="562" y="504"/>
      <point x="595" y="514"/>
      <point x="633" y="514" type="curve"/>
      <point x="644" y="514" type="line"/>
      <point x="644" y="565" type="line"/>
      <point x="408" y="565" type="line"/>
      <point x="408" y="514" type="line"/>
      <point x="416" y="514" type="line" smooth="yes"/>
      <point x="456" y="514"/>
      <point x="498" y="506"/>
      <point x="498" y="494" type="curve"/>
      <point x="339" y="72" type="line"/>
      <point x="175" y="507" type="line"/>
      <point x="175" y="513"/>
      <point x="217" y="514"/>
      <point x="255" y="514" type="curve" smooth="yes"/>
      <point x="264" y="514" type="line"/>
      <point x="264" y="565" type="line"/>
      <point x="21" y="565" type="line"/>
      <point x="21" y="514" type="line"/>
      <point x="33" y="514" type="line"/>
      <point x="76" y="514"/>
      <point x="104" y="509"/>
      <point x="114" y="482" type="curve" smooth="yes"/>
      <point x="304" y="-12" type="line"/>
      <point x="252" y="-136"/>
      <point x="212" y="-169"/>
      <point x="138" y="-169" type="curve" smooth="yes"/>
      <point x="90" y="-169"/>
      <point x="48" y="-154"/>
      <point x="42" y="-152" type="curve"/>
      <point x="42" y="-215" type="line"/>
      <point x="57" y="-225"/>
      <point x="95" y="-232"/>
      <point x="134" y="-232" type="curve" smooth="yes"/>
      <point x="245" y="-232"/>
      <point x="295" y="-182"/>
    </contour>
  </outline>
</glyph>
<glyph name="z" format="2">
  <advance width="542"/>
  <unicode hex="007A"/>
  <anchor x="275.8" y="551.0" name="top"/>
  <anchor x="297.26666666666665" y="0.0" name="bottom"/>
  <outline>
    <contour>
      <point x="502" y="192" type="line"/>
      <point x="452" y="192" type="line"/>
      <point x="441" y="97" type="line" smooth="yes"/>
      <point x="437" y="60"/>
      <point x="405" y="54"/>
      <point x="329" y="54" type="curve" smooth="yes"/>
      <point x="123" y="54" type="line"/>
      <point x="489" y="503" type="line"/>
      <point x="489" y="565" type="line"/>
      <point x="66" y="565" type="line"/>
      <point x="66" y="384" type="line"/>
      <point x="116" y="384" type="line"/>
      <point x="126" y="469" type="line" smooth="yes"/>
      <point x="130" y="506"/>
      <point x="161" y="512"/>
      <point x="238" y="512" type="curve" smooth="yes"/>
      <point x="419" y="512" type="line"/>
      <point x="54" y="65" type="line"/>
      <point x="54" y="0" type="line"/>
      <point x="502" y="0" type="line"/>
    </contour>
  </outline>
</glyph>
<glyph name="quoteright" format="2">
  <advance width="301"/>
  <unicode hex="2019"/>
  <outline>
    <contour>
      <point x="106" y="470" type="line"/>
      <point x="190" y="509"/>
      <point x="234" y="560"/>
      <point x="234" y="687" type="curve" smooth="yes"/>
      <point x="234" y="751"/>
      <point x="211" y="780"/>
      <point x="157" y="780" type="curve" smooth="yes"/>
      <point x="111" y="780"/>
      <point x="88" y="756"/>
      <point x="88" y="723" type="curve" smooth="yes"/>
      <point x="88" y="687"/>
      <point x="111" y="669"/>
      <point x="150" y="669" type="curve" smooth="yes"/>
      <point x="162" y="669"/>
      <point x="175" y="670"/>
      <point x="186" y="674" type="curve"/>
      <point x="184" y="571"/>
      <point x="140" y="546"/>
      <point x="58" y="518" type="curve"/>
    </contour>
  </outline>
</glyph>
<glyph name="quotedblright" format="2">
  <advance width="541"/>
  <unicode hex="201D"/>
  <outline>
    <contour>
      <point x="105.86666666666666" y="470.3333333333333" type="line"/>
      <point x="189.86666666666667" y="509.26666666666665"/>
      <point x="233.66666666666666" y="559.6"/>
      <point x="233.66666666666666" y="687.1333333333333" type="curve" smooth="yes"/>
      <point x="233.66666666666666" y="750.9333333333333"/>
      <point x="210.73333333333332" y="780.0"/>
      <point x="157.33333333333334" y="780.0" type="curve" smooth="yes"/>
      <point x="110.86666666666666" y="780.0"/>
      <point x="88.0" y="756.0666666666667"/>
      <point x="88.0" y="722.7333333333333" type="curve" smooth="yes"/>
      <point x="88.0" y="686.9333333333333"/>
      <point x="111.26666666666667" y="668.9333333333333"/>
      <point x="150.33333333333334" y="668.9333333333333" type="curve" smooth="yes"/>
      <point x="168.93333333333334" y="668.9333333333333"/>
      <point x="190.66666666666666" y="671.9333333333333"/>
      <point x="205.53333333333333" y="683.3333333333334" type="curve"/>
      <point x="205.4" y="691.7333333333333"/>
      <point x="187.6" y="695.5333333333333"/>
      <point x="186.2" y="682.8666666666667" type="curve" smooth="yes"/>
      <point x="186.2" y="572.9333333333333"/>
      <point x="142.4" y="546.9333333333333"/>
      <point x="58.333333333333336" y="518.0" type="curve"/>
    </contour>
    <contour>
      <point x="345.2" y="470.3333333333333" type="line"/>
      <point x="429.20000000000005" y="509.26666666666665"/>
      <point x="473.0" y="559.6"/>
      <point x="473.0" y="687.1333333333333" type="curve" smooth="yes"/>
      <point x="473.0" y="750.9333333333333"/>
      <point x="450.06666666666666" y="780.0"/>
      <point x="396.6666666666667" y="780.0" type="curve" smooth="yes"/>
      <point x="350.2" y="780.0"/>
      <point x="327.33333333333337" y="756.0666666666667"/>
      <point x="327.33333333333337" y="722.7333333333333" type="curve" smooth="yes"/>
      <point x="327.33333333333337" y="686.9333333333333"/>
      <point x="350.6" y="668.9333333333333"/>
      <point x="389.6666666666667" y="668.9333333333333" type="curve" smooth="yes"/>
      <point x="408.26666666666665" y="668.9333333333333"/>
      <point x="430.0" y="671.9333333333333"/>
      <point x="444.8666666666667" y="683.3333333333334" type="curve"/>
      <point x="444.73333333333335" y="691.7333333333333"/>
      <point x="426.93333333333334" y="695.5333333333333"/>
      <point x="425.5333333333333" y="682.8666666666667" type="curve" smooth="yes"/>
      <point x="425.5333333333333" y="572.9333333333333"/>
      <point x="381.73333333333335" y="546.9333333333333"/>
      <point x="297.6666666666667" y="518.0" type="curve"/>
    </contour>
  </outline>
</glyph>
